<svg xmlns="http://www.w3.org/2000/svg" xmlns:xlink="http://www.w3.org/1999/xlink" width="1215px" height="1215px" viewBox="0 0 1215.441884908474 1215.4418849084648">
    <g id="bdb102cf-17a3-47f0-8e0e-bcf81512728f">
<g style="">
		<g id="bdb102cf-17a3-47f0-8e0e-bcf81512728f-child-0">
<path style="stroke: rgb(255,215,54); stroke-width: 2.946175; stroke-dasharray: none; stroke-linecap: round; stroke-dashoffset: 0; stroke-linejoin: miter; stroke-miterlimit: 10; fill: none; fill-rule: nonzero; opacity: 1;" d="M478.84096,518.87482c0,42.54416 -10.06565,163.73461 -122.93517,224.66536c-112.86952,-61.06496 -122.93517,-182.12121 -122.93517,-224.66536c12.74983,-5.09993 20.53393,-14.09191 20.53393,-23.88915c23.48652,-9.39461 64.15176,-23.0839 102.40124,-23.0839c38.24948,0 78.91472,13.68929 102.53545,23.0839c0,9.79724 7.6499,18.78922 20.39972,23.88915z" stroke-linecap="round"/>
</g>
</g>
</g>
<g id="0f6d7fe5-ebce-460d-a241-e74330266a60">
<g style="">
		<g id="Layer_1-2">
<path style="stroke: rgb(193,193,193); stroke-width: 0; stroke-dasharray: none; stroke-linecap: butt; stroke-dashoffset: 0; stroke-linejoin: miter; stroke-miterlimit: 4; fill: rgb(255,215,54); fill-rule: nonzero; opacity: 1;" transform="matrix(0.258361 0 0 0.258361 355.905323 659.658905) matrix(1 0 0 1 -216.574566 -111.997246)  translate(-81.646472, -50.192726)" d="M 162.88 4.32 C 161.91 1.72 159.43 0.00 156.66 0.00 C 155.87 -0.00 155.08 0.14 154.34 0.42 L 16.27 51.94 C 14.33 52.67 12.49 53.63 10.78 54.81 C -0.58 62.67 -3.41 78.25 4.45 89.61 C 12.30 100.96 27.88 103.80 39.24 95.94 L 160.43 12.10 C 162.92 10.37 163.93 7.17 162.88 4.32 Z" stroke-linecap="round"/>
</g>
		<g id="Layer_1-2">
<path style="stroke: rgb(193,193,193); stroke-width: 0; stroke-dasharray: none; stroke-linecap: butt; stroke-dashoffset: 0; stroke-linejoin: miter; stroke-miterlimit: 4; fill: rgb(255,215,54); fill-rule: nonzero; opacity: 1;" transform="matrix(0.258361 0 0 0.258361 355.905323 659.658905) matrix(1 0 0 1 216.569294 -111.893766)  translate(-514.790333, -50.296207)" d="M 585.68 54.91 C 583.97 53.73 582.13 52.75 580.19 52.00 L 442.13 0.52 C 441.38 0.25 440.60 0.10 439.80 0.10 C 436.89 0.09 434.32 1.98 433.44 4.75 C 432.57 7.53 433.61 10.54 436.00 12.20 L 557.20 96.05 C 564.55 101.13 574.05 101.91 582.13 98.09 C 590.21 94.27 595.63 86.42 596.36 77.52 C 597.09 68.61 593.01 59.99 585.66 54.91 Z" stroke-linecap="round"/>
</g>
		<g id="Layer_1-2">
<path style="stroke: rgb(193,193,193); stroke-width: 0; stroke-dasharray: none; stroke-linecap: butt; stroke-dashoffset: 0; stroke-linejoin: miter; stroke-miterlimit: 4; fill: rgb(255,215,54); fill-rule: nonzero; opacity: 1;" transform="matrix(0.258361 0 0 0.258361 355.905323 659.658905) matrix(1 0 0 1 93.230991 -12.426118)  translate(-391.45203, -149.763854)" d="M 439.29 218.28 L 353.12 45.12 C 351.60 42.10 348.05 40.70 344.88 41.88 C 341.71 43.07 339.94 46.45 340.77 49.73 L 389.00 237.00 C 391.16 246.60 398.38 254.26 407.83 257.00 C 417.29 259.73 427.48 257.11 434.44 250.15 C 441.39 243.19 444.01 232.99 441.27 223.54 C 440.79 221.72 440.12 219.96 439.29 218.28 Z" stroke-linecap="round"/>
</g>
		<g id="Layer_1-2">
<path style="stroke: rgb(193,193,193); stroke-width: 0; stroke-dasharray: none; stroke-linecap: butt; stroke-dashoffset: 0; stroke-linejoin: miter; stroke-miterlimit: 4; fill: rgb(255,215,54); fill-rule: nonzero; opacity: 1;" transform="matrix(0.258361 0 0 0.258361 355.905323 659.658905) matrix(1 0 0 1 162.031449 -52.789336)  translate(-460.252487, -109.400637)" d="M 522.48 147.89 L 401.71 29.41 C 399.30 27.03 395.48 26.85 392.86 29.00 C 390.24 31.14 389.65 34.91 391.50 37.75 L 483.50 179.75 C 491.11 191.49 506.79 194.83 518.53 187.22 C 530.27 179.61 533.61 163.93 526.00 152.19 C 524.98 150.63 523.80 149.19 522.48 147.89 Z" stroke-linecap="round"/>
</g>
		<g id="Layer_1-2">
<path style="stroke: rgb(193,193,193); stroke-width: 0; stroke-dasharray: none; stroke-linecap: butt; stroke-dashoffset: 0; stroke-linejoin: miter; stroke-miterlimit: 4; fill: rgb(255,215,54); fill-rule: nonzero; opacity: 1;" transform="matrix(0.258361 0 0 0.258361 355.905323 659.658905) matrix(1 0 0 1 -93.220902 -12.537871)  translate(-205.000136, -149.652101)" d="M 252.22 42.00 C 248.94 40.38 244.96 41.72 243.34 45.00 L 157.17 218.17 C 156.33 219.87 155.66 221.64 155.17 223.47 C 152.43 232.92 155.05 243.12 162.00 250.08 C 168.96 257.04 179.15 259.66 188.61 256.93 C 198.06 254.19 205.28 246.53 207.44 236.93 L 255.68 49.62 C 256.48 46.58 255.04 43.40 252.22 42.00 Z" stroke-linecap="round"/>
</g>
		<g id="Layer_1-2">
<path style="stroke: rgb(193,193,193); stroke-width: 0; stroke-dasharray: none; stroke-linecap: butt; stroke-dashoffset: 0; stroke-linejoin: miter; stroke-miterlimit: 4; fill: rgb(255,215,54); fill-rule: nonzero; opacity: 1;" transform="matrix(0.258361 0 0 0.258361 355.905323 659.658905) matrix(1 0 0 1 0.719437 19.871292)  translate(-298.940475, -182.061265)" d="M 299.48 39.75 C 299.29 39.74 299.10 39.74 298.91 39.75 C 295.50 39.75 292.65 42.35 292.33 45.75 L 270.92 293.87 C 270.79 295.48 270.79 297.09 270.92 298.70 C 272.18 313.23 284.34 324.38 298.92 324.38 C 299.73 324.38 300.55 324.38 301.37 324.28 C 316.83 322.94 328.28 309.33 326.95 293.87 L 305.50 45.76 C 305.22 42.56 302.68 40.03 299.48 39.75 Z" stroke-linecap="round"/>
</g>
		<g id="Layer_1-2">
<path style="stroke: rgb(193,193,193); stroke-width: 0; stroke-dasharray: none; stroke-linecap: butt; stroke-dashoffset: 0; stroke-linejoin: miter; stroke-miterlimit: 4; fill: rgb(255,215,54); fill-rule: nonzero; opacity: 1;" transform="matrix(0.258361 0 0 0.258361 355.905323 659.658905) matrix(1 0 0 1 -162.124931 -52.703579)  translate(-136.096107, -109.486394)" d="M 204.12 29.40 C 202.89 28.14 201.21 27.43 199.45 27.41 C 197.70 27.40 196.00 28.08 194.75 29.31 L 74.00 147.79 C 72.68 149.09 71.51 150.53 70.49 152.08 C 65.36 159.66 64.72 169.43 68.83 177.62 C 72.94 185.80 81.16 191.12 90.30 191.54 C 99.45 191.95 108.11 187.38 112.94 179.60 L 205.00 37.65 C 206.68 35.03 206.31 31.60 204.12 29.40 Z" stroke-linecap="round"/>
</g>
</g>
</g>
<g id="da19a536-b354-4480-8d76-4d2dc205bbb9">
<g style="">
		<g id="Capa_1">
<path style="stroke: rgb(193,193,193); stroke-width: 0; stroke-dasharray: none; stroke-linecap: butt; stroke-dashoffset: 0; stroke-linejoin: miter; stroke-miterlimit: 4; fill: rgb(255,215,54); fill-rule: nonzero; opacity: 1;" transform="matrix(5.085307 0 0 5.085307 355.90554 554.382796) matrix(1 0 0 1 0 0)  translate(-16.0795, -16.08)" d="M 15.69 5.72 L 11.77 8.27 L 11.77 20.44 L 12.51 20.44 L 12.51 23.34 L 11.01 22.66 L 9.50 23.34 L 9.50 20.44 L 10.24 20.44 L 10.24 9.27 L 0.00 15.95 L 7.00 20.52 L 7.00 26.14 C 7.00 26.14 9.27 24.22 12.60 24.17 L 16.08 26.44 L 19.53 24.26 C 24.06 23.51 26.16 26.14 26.16 26.14 L 26.16 20.05 L 32.16 16.25 L 15.69 5.72 z" stroke-linecap="round"/>
</g>
</g>
</g>
<g transform="matrix(1 0 0 1 -2800 0)" id="0baf7a26-7698-4502-a33e-92b8afd477bb">

</g>
<g id="ad49dfb0-eba6-48e8-a2e7-9cd4816cc2af">
<g style="">
		<g id="2d0b465f-c148-4617-913b-71fdd0c21d56">
<path style="stroke: rgb(193,193,193); stroke-width: 0; stroke-dasharray: none; stroke-linecap: butt; stroke-dashoffset: 0; stroke-linejoin: miter; stroke-miterlimit: 4; fill: rgb(255,215,54); fill-rule: nonzero; opacity: 1;" d="M600.05187,573.06704l-5.08,-13.36h-43.29l-5.09,13.65c-1.99,5.33 -3.68,8.92 -5.08,10.79c-1.41,1.87 -3.71,2.8 -6.9,2.8c-2.71,0 -5.11,-0.99 -7.19,-2.98c-2.09,-1.99 -3.13,-4.24 -3.13,-6.76c0,-1.45 0.24,-2.95 0.73,-4.5c0.49,-1.55 1.29,-3.7 2.4,-6.46l27.23,-69.15c0.78,-1.99 1.71,-4.37 2.8,-7.15c1.09,-2.79 2.26,-5.1 3.49,-6.94c1.23,-1.84 2.85,-3.33 4.86,-4.47c2.01,-1.13 4.5,-1.7 7.45,-1.7c3,0 5.51,0.57 7.52,1.7c2.01,1.14 3.63,2.61 4.86,4.4c1.23,1.79 2.28,3.71 3.13,5.77c0.85,2.06 1.92,4.81 3.23,8.24l27.82,68.71c2.17,5.23 3.26,9.04 3.26,11.41c0,2.47 -1.03,4.73 -3.08,6.79c-2.06,2.06 -4.54,3.09 -7.45,3.09c-1.69,0 -3.15,-0.3 -4.36,-0.91c-1.21,-0.61 -2.22,-1.43 -3.05,-2.47c-0.82,-1.04 -1.7,-2.64 -2.65,-4.8c-0.94,-2.15 -1.75,-4.05 -2.43,-5.7zM557.34187,543.50704h31.82l-16.06,-43.94zM642.16187,573.79704v-83.89c0,-4.36 0.99,-7.63 2.98,-9.81c1.99,-2.17 4.55,-3.26 7.7,-3.26c3.24,0 5.87,1.08 7.88,3.23c2.01,2.15 3.01,5.43 3.01,9.84v83.89c0,4.41 -1,7.7 -3.01,9.88c-2.01,2.18 -4.64,3.27 -7.88,3.27c-3.1,0 -5.66,-1.1 -7.67,-3.31c-2.01,-2.2 -3.01,-5.48 -3.01,-9.84zM705.99187,490.99704l24.11,71.4l24.19,-71.91c1.26,-3.77 2.2,-6.4 2.83,-7.88c0.63,-1.48 1.67,-2.81 3.12,-3.99c1.45,-1.19 3.44,-1.78 5.96,-1.78c1.84,0 3.55,0.46 5.12,1.38c1.57,0.92 2.81,2.14 3.7,3.66c0.9,1.53 1.35,3.07 1.35,4.62c0,1.06 -0.15,2.21 -0.44,3.45c-0.29,1.23 -0.65,2.44 -1.09,3.63c-0.43,1.19 -0.87,2.41 -1.31,3.67l-25.78,69.58c-0.92,2.66 -1.84,5.19 -2.76,7.59c-0.92,2.39 -1.99,4.5 -3.2,6.32c-1.21,1.81 -2.82,3.3 -4.83,4.46c-2.01,1.17 -4.46,1.75 -7.37,1.75c-2.91,0 -5.36,-0.57 -7.37,-1.71c-2.01,-1.14 -3.63,-2.64 -4.87,-4.5c-1.23,-1.87 -2.31,-3.99 -3.23,-6.36c-0.92,-2.37 -1.84,-4.89 -2.76,-7.55l-25.35,-69c-0.43,-1.26 -0.88,-2.5 -1.34,-3.71c-0.46,-1.21 -0.85,-2.51 -1.16,-3.92c-0.32,-1.41 -0.48,-2.59 -0.48,-3.56c0,-2.47 0.99,-4.72 2.98,-6.75c1.99,-2.03 4.48,-3.05 7.48,-3.05c3.68,0 6.28,1.12 7.81,3.37c1.53,2.25 3.09,5.85 4.69,10.79zM808.31187,478.64704h28.11c7.31,0 13.58,0.68 18.81,2.04c5.23,1.35 9.97,3.89 14.23,7.62c11.09,9.49 16.64,23.92 16.64,43.29c0,6.39 -0.56,12.23 -1.67,17.5c-1.11,5.28 -2.83,10.04 -5.16,14.28c-2.33,4.23 -5.3,8.02 -8.93,11.36c-2.86,2.57 -5.98,4.63 -9.37,6.18c-3.39,1.55 -7.04,2.64 -10.93,3.27c-3.9,0.63 -8.3,0.94 -13.19,0.94h-28.11c-3.92,0 -6.87,-0.59 -8.86,-1.78c-1.99,-1.19 -3.28,-2.86 -3.88,-5.01c-0.61,-2.15 -0.91,-4.95 -0.91,-8.39v-78.08c0,-4.65 1.04,-8.01 3.12,-10.1c2.09,-2.08 5.45,-3.12 10.1,-3.12zM816.66187,495.71704v72.27h16.34c3.59,0 6.4,-0.1 8.43,-0.29c2.03,-0.19 4.14,-0.68 6.32,-1.45c2.18,-0.78 4.07,-1.87 5.66,-3.27c7.21,-6.1 10.82,-16.61 10.82,-31.53c0,-10.51 -1.58,-18.37 -4.75,-23.6c-3.17,-5.23 -7.08,-8.56 -11.73,-9.99c-4.65,-1.43 -10.27,-2.14 -16.85,-2.14z" stroke-linecap="round"/>
</g>
</g>
</g>
<g transform="matrix(1 0 0 1 -2800 0)" id="0d165375-ffea-4fdf-b8b2-bc68e7c85bcd">

</g>
<g transform="matrix(1 0 0 1 -2800 0)" id="0fc16ffc-22e1-4769-958b-2fd0b2322dcc">

</g>
<g transform="matrix(1 0 0 1 -2800 0)" id="9fadf8b2-7a3e-4e48-95c6-c43c350e17be">

</g>
<g id="6b29ed03-6e08-4e6a-b4ca-aee998257c88">
<g style="">
		<g id="8367f0a4-f0c4-4540-bb9e-55924856c1e1">
<path style="stroke: rgb(193,193,193); stroke-width: 0; stroke-dasharray: none; stroke-linecap: butt; stroke-dashoffset: 0; stroke-linejoin: miter; stroke-miterlimit: 4; fill: rgb(255,215,54); fill-rule: nonzero; opacity: 1;" d="M547.60187,627.93227l-1.57,-4.11h-13.32l-1.56,4.2c-0.61,1.64 -1.13,2.75 -1.56,3.32c-0.43,0.57 -1.14,0.86 -2.13,0.86c-0.83,0 -1.57,-0.31 -2.21,-0.92c-0.64,-0.61 -0.96,-1.3 -0.96,-2.08c0,-0.45 0.07,-0.91 0.22,-1.38c0.15,-0.48 0.4,-1.14 0.74,-1.99l8.38,-21.28c0.24,-0.61 0.53,-1.34 0.86,-2.2c0.33,-0.85 0.69,-1.56 1.07,-2.13c0.38,-0.57 0.88,-1.03 1.5,-1.38c0.62,-0.35 1.38,-0.52 2.29,-0.52c0.93,0 1.7,0.17 2.31,0.52c0.62,0.35 1.12,0.81 1.5,1.36c0.38,0.55 0.7,1.14 0.96,1.77c0.26,0.63 0.59,1.48 1,2.54l8.56,21.14c0.67,1.61 1,2.78 1,3.51c0,0.76 -0.32,1.46 -0.95,2.09c-0.63,0.63 -1.4,0.95 -2.29,0.95c-0.52,0 -0.97,-0.09 -1.34,-0.28c-0.37,-0.19 -0.69,-0.44 -0.94,-0.76c-0.25,-0.32 -0.52,-0.81 -0.81,-1.48c-0.29,-0.66 -0.54,-1.24 -0.75,-1.75zM534.46187,618.83227h9.79l-4.94,-13.52zM571.35187,626.70227l-5.25,-20.87v22.61c0,1.25 -0.28,2.19 -0.84,2.82c-0.56,0.63 -1.3,0.94 -2.22,0.94c-0.89,0 -1.62,-0.31 -2.19,-0.93c-0.57,-0.62 -0.85,-1.56 -0.85,-2.83v-25.92c0,-1.43 0.37,-2.4 1.11,-2.89c0.75,-0.5 1.75,-0.75 3.02,-0.75h2.06c1.23,0 2.13,0.11 2.69,0.33c0.56,0.23 0.97,0.63 1.24,1.21c0.27,0.58 0.57,1.53 0.92,2.84l4.76,17.94l4.76,-17.94c0.34,-1.31 0.64,-2.26 0.91,-2.84c0.27,-0.58 0.69,-0.98 1.24,-1.21c0.56,-0.22 1.46,-0.33 2.7,-0.33h2.05c1.27,0 2.27,0.25 3.02,0.75c0.75,0.49 1.12,1.46 1.12,2.89v25.92c0,1.25 -0.28,2.19 -0.84,2.82c-0.56,0.63 -1.31,0.94 -2.25,0.94c-0.88,0 -1.6,-0.31 -2.16,-0.94c-0.57,-0.63 -0.85,-1.57 -0.85,-2.82v-22.61l-5.26,20.87c-0.34,1.35 -0.62,2.35 -0.83,2.98c-0.22,0.63 -0.62,1.21 -1.2,1.74c-0.58,0.52 -1.38,0.78 -2.41,0.78c-0.78,0 -1.44,-0.17 -1.97,-0.5c-0.53,-0.34 -0.95,-0.77 -1.25,-1.29c-0.3,-0.52 -0.54,-1.1 -0.71,-1.73c-0.17,-0.63 -0.34,-1.29 -0.52,-1.98zM620.73187,604.00227h-14.95v8.04h13.77c1.01,0 1.77,0.23 2.27,0.68c0.5,0.45 0.75,1.05 0.75,1.8c0,0.75 -0.25,1.35 -0.74,1.82c-0.49,0.47 -1.25,0.71 -2.28,0.71h-13.77v9.32h15.47c1.04,0 1.83,0.24 2.36,0.72c0.53,0.49 0.79,1.13 0.79,1.94c0,0.77 -0.26,1.4 -0.79,1.88c-0.53,0.49 -1.32,0.73 -2.36,0.73h-18.04c-1.44,0 -2.48,-0.32 -3.11,-0.96c-0.63,-0.64 -0.95,-1.68 -0.95,-3.11v-24.63c0,-0.95 0.14,-1.73 0.42,-2.33c0.28,-0.61 0.72,-1.05 1.33,-1.32c0.61,-0.27 1.38,-0.41 2.31,-0.41h17.52c1.06,0 1.85,0.23 2.36,0.7c0.51,0.47 0.77,1.09 0.77,1.85c0,0.77 -0.26,1.39 -0.77,1.86c-0.51,0.47 -1.3,0.71 -2.36,0.71zM639.32187,617.63227h-2.32v10.52c0,1.39 -0.31,2.41 -0.92,3.07c-0.61,0.65 -1.4,0.98 -2.39,0.98c-1.06,0 -1.88,-0.34 -2.46,-1.03c-0.58,-0.69 -0.87,-1.69 -0.87,-3.02v-25.21c0,-1.43 0.32,-2.46 0.96,-3.1c0.64,-0.64 1.68,-0.96 3.11,-0.96h10.79c1.49,0 2.77,0.06 3.82,0.19c1.06,0.13 2.01,0.38 2.86,0.77c1.03,0.43 1.94,1.05 2.73,1.85c0.79,0.81 1.39,1.74 1.8,2.81c0.41,1.07 0.61,2.19 0.61,3.38c0,2.45 -0.69,4.4 -2.06,5.86c-1.38,1.46 -3.47,2.5 -6.27,3.11c1.17,0.62 2.3,1.54 3.37,2.77c1.07,1.22 2.03,2.52 2.88,3.9c0.84,1.37 1.49,2.62 1.96,3.73c0.47,1.11 0.71,1.87 0.71,2.29c0,0.43 -0.14,0.86 -0.42,1.28c-0.27,0.43 -0.65,0.76 -1.13,1.01c-0.47,0.25 -1.02,0.37 -1.65,0.37c-0.75,0 -1.37,-0.18 -1.88,-0.53c-0.51,-0.35 -0.94,-0.79 -1.3,-1.33c-0.37,-0.53 -0.86,-1.32 -1.49,-2.37l-2.66,-4.42c-0.95,-1.63 -1.81,-2.86 -2.56,-3.71c-0.75,-0.85 -1.52,-1.43 -2.29,-1.74c-0.77,-0.31 -1.75,-0.47 -2.93,-0.47zM643.12187,603.86227h-6.12v9.01h5.94c1.59,0 2.94,-0.14 4.03,-0.42c1.09,-0.27 1.92,-0.74 2.49,-1.4c0.57,-0.67 0.86,-1.58 0.86,-2.74c0,-0.91 -0.23,-1.71 -0.69,-2.4c-0.47,-0.69 -1.11,-1.21 -1.93,-1.56c-0.77,-0.33 -2.3,-0.49 -4.58,-0.49zM664.33187,628.15227v-25.81c0,-1.34 0.3,-2.35 0.91,-3.02c0.61,-0.67 1.4,-1 2.37,-1c1,0 1.81,0.33 2.43,0.99c0.61,0.67 0.92,1.68 0.92,3.03v25.81c0,1.36 -0.31,2.37 -0.92,3.04c-0.62,0.67 -1.43,1.01 -2.43,1.01c-0.95,0 -1.74,-0.34 -2.36,-1.02c-0.61,-0.67 -0.92,-1.68 -0.92,-3.03zM707.03187,621.29227c0,1.05 -0.26,2.18 -0.77,3.39c-0.51,1.21 -1.32,2.4 -2.43,3.57c-1.1,1.17 -2.51,2.12 -4.22,2.85c-1.71,0.73 -3.71,1.1 -5.99,1.1c-1.73,0 -3.3,-0.16 -4.72,-0.49c-1.41,-0.33 -2.7,-0.84 -3.85,-1.53c-1.15,-0.69 -2.22,-1.61 -3.19,-2.74c-0.86,-1.03 -1.6,-2.18 -2.21,-3.45c-0.61,-1.28 -1.07,-2.64 -1.37,-4.08c-0.31,-1.45 -0.46,-2.98 -0.46,-4.61c0,-2.63 0.38,-4.99 1.15,-7.08c0.77,-2.09 1.87,-3.87 3.3,-5.35c1.43,-1.49 3.1,-2.62 5.02,-3.39c1.93,-0.77 3.98,-1.16 6.15,-1.16c2.65,0 5.01,0.53 7.08,1.59c2.07,1.05 3.66,2.36 4.76,3.92c1.11,1.55 1.66,3.02 1.66,4.41c0,0.76 -0.27,1.43 -0.81,2.01c-0.53,0.58 -1.18,0.87 -1.94,0.87c-0.85,0 -1.48,-0.2 -1.91,-0.6c-0.43,-0.4 -0.9,-1.09 -1.42,-2.08c-0.87,-1.62 -1.88,-2.83 -3.05,-3.64c-1.17,-0.81 -2.62,-1.21 -4.33,-1.21c-2.72,0 -4.89,1.04 -6.51,3.11c-1.61,2.07 -2.42,5.02 -2.42,8.83c0,2.55 0.36,4.66 1.07,6.35c0.71,1.69 1.73,2.96 3.04,3.79c1.31,0.83 2.84,1.25 4.6,1.25c1.91,0 3.52,-0.47 4.84,-1.41c1.32,-0.95 2.31,-2.34 2.98,-4.17c0.29,-0.87 0.64,-1.57 1.05,-2.11c0.42,-0.55 1.09,-0.82 2.01,-0.82c0.79,0 1.47,0.28 2.04,0.83c0.57,0.55 0.85,1.23 0.85,2.05zM734.69187,627.93227l-1.56,-4.11h-13.32l-1.57,4.2c-0.61,1.64 -1.13,2.75 -1.56,3.32c-0.43,0.57 -1.14,0.86 -2.13,0.86c-0.83,0 -1.57,-0.31 -2.21,-0.92c-0.64,-0.61 -0.96,-1.3 -0.96,-2.08c0,-0.45 0.07,-0.91 0.22,-1.38c0.15,-0.48 0.4,-1.14 0.74,-1.99l8.38,-21.28c0.24,-0.61 0.53,-1.34 0.86,-2.2c0.34,-0.85 0.7,-1.56 1.08,-2.13c0.38,-0.57 0.88,-1.03 1.49,-1.38c0.62,-0.35 1.38,-0.52 2.29,-0.52c0.93,0 1.7,0.17 2.32,0.52c0.61,0.35 1.11,0.81 1.49,1.36c0.38,0.55 0.7,1.14 0.96,1.77c0.27,0.63 0.6,1.48 1,2.54l8.56,21.14c0.67,1.61 1,2.78 1,3.51c0,0.76 -0.32,1.46 -0.95,2.09c-0.63,0.63 -1.4,0.95 -2.29,0.95c-0.52,0 -0.97,-0.09 -1.34,-0.28c-0.37,-0.19 -0.69,-0.44 -0.94,-0.76c-0.25,-0.32 -0.52,-0.81 -0.81,-1.48c-0.29,-0.66 -0.54,-1.24 -0.75,-1.75zM721.55187,618.83227h9.79l-4.94,-13.52zM756.03187,602.30227l12.76,19.31v-19.49c0,-1.27 0.27,-2.22 0.81,-2.85c0.55,-0.63 1.28,-0.95 2.21,-0.95c0.95,0 1.7,0.32 2.25,0.95c0.55,0.63 0.83,1.58 0.83,2.85v25.77c0,2.87 -1.19,4.31 -3.58,4.31c-0.59,0 -1.13,-0.09 -1.61,-0.26c-0.47,-0.17 -0.92,-0.44 -1.34,-0.81c-0.41,-0.37 -0.8,-0.81 -1.16,-1.31c-0.35,-0.5 -0.71,-1.01 -1.07,-1.53l-12.45,-19.09v19.2c0,1.25 -0.29,2.2 -0.87,2.84c-0.58,0.64 -1.33,0.96 -2.24,0.96c-0.93,0 -1.68,-0.32 -2.25,-0.97c-0.57,-0.65 -0.85,-1.6 -0.85,-2.83v-25.28c0,-1.07 0.12,-1.91 0.36,-2.52c0.28,-0.67 0.75,-1.22 1.4,-1.64c0.66,-0.43 1.37,-0.64 2.13,-0.64c0.59,0 1.1,0.1 1.53,0.29c0.42,0.19 0.79,0.45 1.11,0.78c0.33,0.33 0.66,0.75 0.99,1.28c0.33,0.52 0.68,1.06 1.04,1.63zM795.33187,628.15227v-25.81c0,-1.34 0.3,-2.35 0.91,-3.02c0.61,-0.67 1.4,-1 2.37,-1c1,0 1.81,0.33 2.43,0.99c0.62,0.67 0.93,1.68 0.93,3.03v25.81c0,1.36 -0.31,2.37 -0.93,3.04c-0.62,0.67 -1.43,1.01 -2.43,1.01c-0.95,0 -1.74,-0.34 -2.35,-1.02c-0.62,-0.67 -0.93,-1.68 -0.93,-3.03zM818.77187,602.30227l12.76,19.31v-19.49c0,-1.27 0.27,-2.22 0.81,-2.85c0.55,-0.63 1.28,-0.95 2.2,-0.95c0.95,0 1.71,0.32 2.26,0.95c0.55,0.63 0.83,1.58 0.83,2.85v25.77c0,2.87 -1.19,4.31 -3.58,4.31c-0.59,0 -1.13,-0.09 -1.61,-0.26c-0.47,-0.17 -0.92,-0.44 -1.34,-0.81c-0.41,-0.37 -0.8,-0.81 -1.16,-1.31c-0.36,-0.5 -0.72,-1.01 -1.07,-1.53l-12.45,-19.09v19.2c0,1.25 -0.29,2.2 -0.87,2.84c-0.58,0.64 -1.33,0.96 -2.24,0.96c-0.94,0 -1.69,-0.32 -2.25,-0.97c-0.57,-0.65 -0.85,-1.6 -0.85,-2.83v-25.28c0,-1.07 0.12,-1.91 0.35,-2.52c0.29,-0.67 0.76,-1.22 1.41,-1.64c0.66,-0.43 1.37,-0.64 2.13,-0.64c0.59,0 1.1,0.1 1.53,0.29c0.42,0.19 0.79,0.45 1.11,0.78c0.32,0.33 0.65,0.75 0.99,1.28c0.33,0.52 0.68,1.06 1.04,1.63zM870.52187,621.81227c0,1.98 -0.51,3.76 -1.53,5.34c-1.02,1.58 -2.51,2.82 -4.48,3.71c-1.97,0.89 -4.3,1.34 -7,1.34c-3.23,0 -5.9,-0.61 -8,-1.83c-1.49,-0.88 -2.7,-2.05 -3.63,-3.52c-0.93,-1.47 -1.4,-2.9 -1.4,-4.28c0,-0.81 0.28,-1.5 0.84,-2.07c0.56,-0.57 1.27,-0.86 2.14,-0.86c0.7,0 1.29,0.22 1.77,0.67c0.49,0.45 0.9,1.11 1.24,1.99c0.42,1.04 0.87,1.91 1.36,2.61c0.48,0.7 1.16,1.28 2.04,1.74c0.88,0.45 2.03,0.68 3.46,0.68c1.97,0 3.57,-0.46 4.8,-1.38c1.23,-0.91 1.84,-2.06 1.84,-3.43c0,-1.09 -0.33,-1.97 -0.99,-2.65c-0.67,-0.67 -1.52,-1.19 -2.57,-1.55c-1.05,-0.36 -2.46,-0.74 -4.22,-1.14c-2.35,-0.55 -4.32,-1.2 -5.91,-1.93c-1.59,-0.74 -2.84,-1.75 -3.77,-3.02c-0.93,-1.27 -1.4,-2.86 -1.4,-4.75c0,-1.8 0.49,-3.4 1.47,-4.8c0.99,-1.4 2.41,-2.48 4.27,-3.23c1.87,-0.75 4.06,-1.13 6.57,-1.13c2.01,0 3.75,0.25 5.22,0.75c1.47,0.5 2.69,1.16 3.66,1.99c0.97,0.83 1.67,1.69 2.12,2.6c0.45,0.91 0.67,1.79 0.67,2.66c0,0.79 -0.28,1.5 -0.84,2.13c-0.56,0.63 -1.26,0.95 -2.09,0.95c-0.76,0 -1.34,-0.19 -1.73,-0.57c-0.39,-0.38 -0.82,-1 -1.29,-1.86c-0.59,-1.24 -1.31,-2.21 -2.14,-2.9c-0.83,-0.69 -2.17,-1.04 -4.02,-1.04c-1.71,0 -3.1,0.38 -4.15,1.13c-1.05,0.75 -1.57,1.66 -1.57,2.72c0,0.65 0.18,1.22 0.53,1.7c0.36,0.47 0.85,0.88 1.48,1.23c0.63,0.34 1.26,0.61 1.9,0.8c0.64,0.19 1.7,0.48 3.17,0.85c1.85,0.43 3.52,0.91 5.02,1.43c1.49,0.52 2.77,1.15 3.82,1.9c1.05,0.75 1.87,1.69 2.46,2.83c0.59,1.14 0.88,2.54 0.88,4.19zM898.16187,604.35227h-7.24v23.8c0,1.37 -0.31,2.39 -0.92,3.05c-0.61,0.67 -1.4,1 -2.37,1c-0.98,0 -1.78,-0.34 -2.4,-1.01c-0.62,-0.67 -0.93,-1.68 -0.93,-3.04v-23.8h-7.24c-1.13,0 -1.97,-0.25 -2.52,-0.75c-0.55,-0.49 -0.83,-1.15 -0.83,-1.97c0,-0.85 0.29,-1.53 0.86,-2.02c0.57,-0.49 1.4,-0.73 2.49,-0.73h21.1c1.15,0 2,0.25 2.56,0.76c0.56,0.51 0.84,1.17 0.84,1.99c0,0.82 -0.28,1.48 -0.85,1.97c-0.57,0.5 -1.42,0.75 -2.55,0.75zM906.49187,628.15227v-25.81c0,-1.34 0.31,-2.35 0.92,-3.02c0.61,-0.67 1.4,-1 2.37,-1c0.99,0 1.8,0.33 2.42,0.99c0.62,0.67 0.93,1.68 0.93,3.03v25.81c0,1.36 -0.31,2.37 -0.93,3.04c-0.62,0.67 -1.43,1.01 -2.42,1.01c-0.96,0 -1.75,-0.34 -2.36,-1.02c-0.62,-0.67 -0.93,-1.68 -0.93,-3.03zM942.55187,604.35227h-7.24v23.8c0,1.37 -0.3,2.39 -0.91,3.05c-0.61,0.67 -1.4,1 -2.37,1c-0.99,0 -1.79,-0.34 -2.4,-1.01c-0.62,-0.67 -0.93,-1.68 -0.93,-3.04v-23.8h-7.24c-1.13,0 -1.98,-0.25 -2.53,-0.75c-0.55,-0.49 -0.82,-1.15 -0.82,-1.97c0,-0.85 0.29,-1.53 0.86,-2.02c0.57,-0.49 1.4,-0.73 2.49,-0.73h21.09c1.15,0 2.01,0.25 2.56,0.76c0.56,0.51 0.84,1.17 0.84,1.99c0,0.82 -0.28,1.48 -0.85,1.97c-0.57,0.5 -1.42,0.75 -2.55,0.75zM950.66187,618.10227v-15.76c0,-1.34 0.3,-2.35 0.91,-3.02c0.6,-0.67 1.39,-1 2.38,-1c1.03,0 1.84,0.33 2.44,1c0.61,0.67 0.91,1.68 0.91,3.02v16.11c0,1.83 0.2,3.37 0.61,4.6c0.41,1.23 1.14,2.18 2.18,2.86c1.05,0.67 2.51,1.01 4.38,1.01c2.59,0 4.43,-0.69 5.5,-2.06c1.07,-1.38 1.61,-3.47 1.61,-6.27v-16.25c0,-1.35 0.3,-2.36 0.89,-3.03c0.6,-0.66 1.4,-0.99 2.4,-0.99c0.99,0 1.8,0.33 2.42,0.99c0.62,0.67 0.93,1.68 0.93,3.03v15.76c0,2.56 -0.25,4.7 -0.75,6.41c-0.5,1.71 -1.44,3.22 -2.83,4.52c-1.19,1.1 -2.58,1.9 -4.15,2.41c-1.58,0.51 -3.43,0.76 -5.55,0.76c-2.51,0 -4.68,-0.27 -6.5,-0.82c-1.82,-0.54 -3.3,-1.38 -4.45,-2.52c-1.15,-1.14 -1.99,-2.6 -2.52,-4.38c-0.54,-1.78 -0.81,-3.91 -0.81,-6.38zM1007.40187,604.35227h-7.24v23.8c0,1.37 -0.31,2.39 -0.92,3.05c-0.61,0.67 -1.4,1 -2.37,1c-0.98,0 -1.78,-0.34 -2.4,-1.01c-0.62,-0.67 -0.93,-1.68 -0.93,-3.04v-23.8h-7.24c-1.13,0 -1.97,-0.25 -2.52,-0.75c-0.55,-0.49 -0.83,-1.15 -0.83,-1.97c0,-0.85 0.29,-1.53 0.86,-2.02c0.57,-0.49 1.4,-0.73 2.49,-0.73h21.1c1.15,0 2,0.25 2.56,0.76c0.56,0.51 0.84,1.17 0.84,1.99c0,0.82 -0.28,1.48 -0.85,1.97c-0.57,0.5 -1.42,0.75 -2.55,0.75zM1037.05187,604.00227h-14.95v8.04h13.77c1.01,0 1.77,0.23 2.26,0.68c0.5,0.45 0.75,1.05 0.75,1.8c0,0.75 -0.24,1.35 -0.73,1.82c-0.49,0.47 -1.25,0.71 -2.28,0.71h-13.77v9.32h15.46c1.05,0 1.83,0.24 2.36,0.72c0.53,0.49 0.8,1.13 0.8,1.94c0,0.77 -0.27,1.4 -0.8,1.88c-0.53,0.49 -1.31,0.73 -2.36,0.73h-18.03c-1.45,0 -2.49,-0.32 -3.12,-0.96c-0.63,-0.64 -0.95,-1.68 -0.95,-3.11v-24.63c0,-0.95 0.14,-1.73 0.43,-2.33c0.28,-0.61 0.72,-1.05 1.33,-1.32c0.6,-0.27 1.37,-0.41 2.31,-0.41h17.52c1.06,0 1.85,0.23 2.36,0.7c0.51,0.47 0.77,1.09 0.77,1.85c0,0.77 -0.26,1.39 -0.77,1.86c-0.51,0.47 -1.3,0.71 -2.36,0.71zM546.21187,648.39227h-13.07v8.38h10.93c1.01,0 1.77,0.23 2.27,0.68c0.49,0.46 0.74,1.07 0.74,1.83c0,0.75 -0.25,1.36 -0.76,1.81c-0.51,0.45 -1.26,0.67 -2.25,0.67h-10.93v10.79c0,1.37 -0.31,2.39 -0.93,3.05c-0.62,0.66 -1.41,0.99 -2.38,0.99c-0.98,0 -1.78,-0.33 -2.4,-1c-0.62,-0.67 -0.93,-1.69 -0.93,-3.04v-25.21c0,-0.95 0.14,-1.73 0.43,-2.33c0.28,-0.61 0.72,-1.05 1.33,-1.32c0.6,-0.28 1.37,-0.42 2.31,-0.42h15.64c1.06,0 1.85,0.24 2.36,0.71c0.51,0.47 0.77,1.08 0.77,1.84c0,0.77 -0.26,1.4 -0.77,1.87c-0.51,0.47 -1.3,0.7 -2.36,0.7zM569.43187,642.71227c3.39,0 6.31,0.69 8.75,2.07c2.43,1.38 4.28,3.34 5.53,5.88c1.25,2.54 1.88,5.52 1.88,8.95c0,2.53 -0.34,4.84 -1.03,6.91c-0.69,2.07 -1.72,3.86 -3.09,5.38c-1.37,1.52 -3.05,2.68 -5.05,3.49c-1.99,0.8 -4.28,1.2 -6.86,1.2c-2.56,0 -4.85,-0.41 -6.88,-1.24c-2.03,-0.83 -3.72,-1.99 -5.07,-3.49c-1.36,-1.51 -2.39,-3.32 -3.08,-5.43c-0.69,-2.12 -1.04,-4.41 -1.04,-6.86c0,-2.52 0.36,-4.83 1.09,-6.93c0.72,-2.1 1.77,-3.89 3.14,-5.37c1.37,-1.47 3.03,-2.6 5,-3.38c1.97,-0.79 4.2,-1.18 6.71,-1.18zM578.86187,659.57227c0,-2.4 -0.39,-4.48 -1.16,-6.24c-0.78,-1.76 -1.89,-3.09 -3.32,-3.99c-1.44,-0.9 -3.09,-1.35 -4.95,-1.35c-1.33,0 -2.55,0.25 -3.68,0.75c-1.13,0.5 -2.09,1.23 -2.9,2.18c-0.81,0.95 -1.46,2.17 -1.93,3.65c-0.47,1.48 -0.7,3.15 -0.7,5c0,1.86 0.23,3.54 0.7,5.05c0.47,1.5 1.14,2.75 1.99,3.74c0.86,0.99 1.84,1.73 2.95,2.22c1.11,0.49 2.33,0.74 3.66,0.74c1.69,0 3.25,-0.42 4.68,-1.27c1.42,-0.85 2.55,-2.17 3.4,-3.94c0.84,-1.77 1.26,-3.95 1.26,-6.54zM600.91187,662.02227h-2.32v10.53c0,1.39 -0.31,2.41 -0.92,3.06c-0.61,0.65 -1.41,0.98 -2.39,0.98c-1.06,0 -1.88,-0.34 -2.46,-1.02c-0.58,-0.69 -0.87,-1.69 -0.87,-3.02v-25.21c0,-1.43 0.32,-2.46 0.96,-3.11c0.64,-0.64 1.68,-0.96 3.11,-0.96h10.79c1.49,0 2.77,0.06 3.82,0.19c1.06,0.13 2.01,0.38 2.86,0.77c1.03,0.43 1.94,1.05 2.73,1.86c0.79,0.81 1.39,1.74 1.8,2.8c0.41,1.07 0.61,2.2 0.61,3.39c0,2.45 -0.69,4.4 -2.06,5.86c-1.38,1.46 -3.47,2.49 -6.27,3.1c1.17,0.63 2.3,1.55 3.37,2.77c1.07,1.23 2.03,2.53 2.87,3.9c0.85,1.38 1.5,2.62 1.97,3.73c0.47,1.11 0.7,1.88 0.7,2.3c0,0.43 -0.14,0.85 -0.41,1.28c-0.27,0.43 -0.65,0.76 -1.13,1.01c-0.47,0.24 -1.02,0.36 -1.65,0.36c-0.75,0 -1.37,-0.17 -1.88,-0.52c-0.51,-0.35 -0.94,-0.8 -1.31,-1.33c-0.36,-0.53 -0.85,-1.32 -1.48,-2.37l-2.66,-4.42c-0.95,-1.63 -1.81,-2.86 -2.56,-3.71c-0.75,-0.85 -1.52,-1.44 -2.29,-1.75c-0.77,-0.31 -1.75,-0.47 -2.93,-0.47zM604.71187,648.26227h-6.12v9h5.94c1.59,0 2.93,-0.14 4.02,-0.41c1.09,-0.27 1.93,-0.74 2.5,-1.41c0.57,-0.66 0.86,-1.57 0.86,-2.74c0,-0.91 -0.23,-1.71 -0.7,-2.4c-0.46,-0.69 -1.1,-1.21 -1.92,-1.55c-0.77,-0.33 -2.3,-0.49 -4.58,-0.49zM642.67187,647.07227l7.42,21.97l7.44,-22.12c0.39,-1.17 0.68,-1.98 0.87,-2.43c0.19,-0.45 0.51,-0.86 0.96,-1.23c0.45,-0.37 1.06,-0.55 1.84,-0.55c0.57,0 1.09,0.14 1.57,0.43c0.49,0.28 0.87,0.66 1.14,1.13c0.28,0.47 0.42,0.94 0.42,1.42c0,0.33 -0.05,0.68 -0.14,1.06c-0.09,0.38 -0.2,0.75 -0.33,1.12c-0.14,0.36 -0.28,0.73 -0.41,1.12l-7.93,21.41c-0.28,0.82 -0.56,1.6 -0.85,2.34c-0.28,0.74 -0.61,1.39 -0.98,1.94c-0.37,0.56 -0.87,1.02 -1.49,1.38c-0.62,0.35 -1.38,0.53 -2.27,0.53c-0.89,0 -1.65,-0.17 -2.27,-0.52c-0.61,-0.35 -1.11,-0.82 -1.49,-1.39c-0.38,-0.57 -0.71,-1.22 -1,-1.95c-0.28,-0.73 -0.56,-1.51 -0.85,-2.33l-7.8,-21.23c-0.13,-0.39 -0.27,-0.77 -0.41,-1.14c-0.14,-0.37 -0.26,-0.77 -0.36,-1.2c-0.09,-0.43 -0.14,-0.8 -0.14,-1.1c0,-0.76 0.3,-1.45 0.91,-2.08c0.61,-0.63 1.38,-0.94 2.31,-0.94c1.13,0 1.93,0.35 2.4,1.04c0.47,0.69 0.95,1.8 1.44,3.32zM670.09187,662.49227v-15.75c0,-1.34 0.3,-2.35 0.9,-3.02c0.61,-0.67 1.4,-1.01 2.38,-1.01c1.03,0 1.84,0.34 2.45,1.01c0.6,0.67 0.9,1.68 0.9,3.02v16.11c0,1.83 0.21,3.36 0.62,4.59c0.41,1.23 1.13,2.19 2.18,2.86c1.04,0.68 2.5,1.02 4.38,1.02c2.59,0 4.43,-0.69 5.5,-2.07c1.07,-1.37 1.6,-3.46 1.6,-6.27v-16.24c0,-1.36 0.3,-2.37 0.9,-3.03c0.59,-0.67 1.39,-1 2.39,-1c1,0 1.81,0.33 2.42,1c0.62,0.66 0.93,1.67 0.93,3.03v15.75c0,2.57 -0.25,4.71 -0.75,6.42c-0.5,1.71 -1.44,3.22 -2.82,4.51c-1.19,1.11 -2.58,1.91 -4.16,2.42c-1.58,0.5 -3.43,0.75 -5.54,0.75c-2.52,0 -4.69,-0.27 -6.51,-0.81c-1.81,-0.55 -3.29,-1.39 -4.44,-2.53c-1.15,-1.14 -1.99,-2.6 -2.53,-4.38c-0.53,-1.78 -0.8,-3.91 -0.8,-6.38zM712.05187,646.74227v23.84h13.45c1.07,0 1.9,0.26 2.47,0.79c0.57,0.52 0.86,1.17 0.86,1.96c0,0.81 -0.28,1.46 -0.84,1.96c-0.57,0.5 -1.4,0.75 -2.49,0.75h-16.02c-1.45,0 -2.49,-0.32 -3.12,-0.96c-0.63,-0.65 -0.95,-1.68 -0.95,-3.11v-25.23c0,-1.34 0.3,-2.35 0.91,-3.02c0.6,-0.67 1.39,-1.01 2.38,-1.01c1,0 1.81,0.33 2.42,1c0.62,0.66 0.93,1.67 0.93,3.03zM742.57187,646.69227l12.76,19.31v-19.49c0,-1.27 0.27,-2.22 0.82,-2.85c0.55,-0.63 1.28,-0.95 2.2,-0.95c0.95,0 1.71,0.32 2.26,0.95c0.55,0.63 0.83,1.58 0.83,2.85v25.77c0,2.87 -1.19,4.31 -3.58,4.31c-0.59,0 -1.13,-0.08 -1.61,-0.25c-0.47,-0.17 -0.92,-0.45 -1.34,-0.82c-0.42,-0.37 -0.81,-0.81 -1.16,-1.31c-0.36,-0.49 -0.72,-1 -1.07,-1.53l-12.45,-19.08v19.2c0,1.25 -0.29,2.19 -0.87,2.83c-0.59,0.64 -1.33,0.96 -2.24,0.96c-0.94,0 -1.69,-0.32 -2.26,-0.97c-0.57,-0.65 -0.85,-1.59 -0.85,-2.82v-25.28c0,-1.07 0.12,-1.92 0.36,-2.53c0.29,-0.67 0.76,-1.21 1.41,-1.64c0.65,-0.43 1.36,-0.64 2.12,-0.64c0.6,0 1.11,0.1 1.53,0.3c0.43,0.19 0.8,0.45 1.12,0.78c0.32,0.33 0.65,0.75 0.98,1.27c0.34,0.52 0.69,1.06 1.04,1.63zM791.02187,648.39227h-14.95v8.05h13.77c1.01,0 1.76,0.23 2.26,0.68c0.5,0.45 0.75,1.05 0.75,1.8c0,0.74 -0.25,1.35 -0.74,1.82c-0.49,0.47 -1.24,0.7 -2.27,0.7h-13.77v9.32h15.46c1.05,0 1.83,0.24 2.36,0.73c0.53,0.48 0.79,1.12 0.79,1.93c0,0.77 -0.26,1.4 -0.79,1.89c-0.53,0.49 -1.31,0.73 -2.36,0.73h-18.03c-1.45,0 -2.49,-0.32 -3.12,-0.96c-0.63,-0.65 -0.95,-1.68 -0.95,-3.11v-24.63c0,-0.95 0.14,-1.73 0.43,-2.33c0.28,-0.61 0.72,-1.05 1.33,-1.32c0.6,-0.28 1.37,-0.42 2.31,-0.42h17.52c1.06,0 1.85,0.24 2.36,0.71c0.51,0.47 0.77,1.08 0.77,1.84c0,0.77 -0.26,1.4 -0.77,1.87c-0.51,0.47 -1.3,0.7 -2.36,0.7zM809.61187,662.02227h-2.33v10.53c0,1.39 -0.3,2.41 -0.91,3.06c-0.61,0.65 -1.41,0.98 -2.39,0.98c-1.06,0 -1.88,-0.34 -2.46,-1.02c-0.58,-0.69 -0.87,-1.69 -0.87,-3.02v-25.21c0,-1.43 0.32,-2.46 0.96,-3.11c0.64,-0.64 1.67,-0.96 3.1,-0.96h10.8c1.49,0 2.76,0.06 3.82,0.19c1.06,0.13 2.01,0.38 2.86,0.77c1.03,0.43 1.94,1.05 2.73,1.86c0.79,0.81 1.39,1.74 1.8,2.8c0.41,1.07 0.61,2.2 0.61,3.39c0,2.45 -0.69,4.4 -2.07,5.86c-1.37,1.46 -3.46,2.49 -6.27,3.1c1.18,0.63 2.31,1.55 3.38,2.77c1.07,1.23 2.03,2.53 2.87,3.9c0.84,1.38 1.5,2.62 1.97,3.73c0.47,1.11 0.7,1.88 0.7,2.3c0,0.43 -0.14,0.85 -0.41,1.28c-0.28,0.43 -0.66,0.76 -1.13,1.01c-0.48,0.24 -1.03,0.36 -1.65,0.36c-0.75,0 -1.37,-0.17 -1.88,-0.52c-0.51,-0.35 -0.94,-0.8 -1.31,-1.33c-0.37,-0.53 -0.86,-1.32 -1.49,-2.37l-2.65,-4.42c-0.95,-1.63 -1.81,-2.86 -2.56,-3.71c-0.75,-0.85 -1.52,-1.44 -2.29,-1.75c-0.78,-0.31 -1.76,-0.47 -2.93,-0.47zM813.41187,648.26227h-6.13v9h5.95c1.59,0 2.93,-0.14 4.02,-0.41c1.09,-0.27 1.92,-0.74 2.49,-1.41c0.57,-0.66 0.86,-1.57 0.86,-2.74c0,-0.91 -0.23,-1.71 -0.69,-2.4c-0.46,-0.69 -1.1,-1.21 -1.92,-1.55c-0.77,-0.33 -2.3,-0.49 -4.58,-0.49zM855.31187,672.33227l-1.57,-4.12h-13.32l-1.56,4.21c-0.61,1.63 -1.14,2.74 -1.57,3.31c-0.43,0.57 -1.14,0.86 -2.12,0.86c-0.83,0 -1.57,-0.3 -2.21,-0.91c-0.64,-0.61 -0.96,-1.31 -0.96,-2.08c0,-0.45 0.07,-0.91 0.22,-1.39c0.15,-0.47 0.39,-1.13 0.74,-1.98l8.38,-21.28c0.24,-0.61 0.53,-1.35 0.86,-2.2c0.33,-0.86 0.69,-1.57 1.07,-2.14c0.38,-0.56 0.88,-1.02 1.5,-1.37c0.62,-0.35 1.38,-0.53 2.29,-0.53c0.92,0 1.69,0.18 2.31,0.53c0.62,0.35 1.12,0.8 1.5,1.35c0.38,0.55 0.7,1.15 0.96,1.78c0.26,0.63 0.59,1.48 0.99,2.54l8.56,21.14c0.67,1.61 1.01,2.78 1.01,3.51c0,0.76 -0.32,1.46 -0.95,2.09c-0.63,0.63 -1.4,0.94 -2.29,0.94c-0.52,0 -0.97,-0.09 -1.34,-0.27c-0.37,-0.19 -0.69,-0.44 -0.94,-0.76c-0.25,-0.32 -0.53,-0.81 -0.82,-1.48c-0.29,-0.66 -0.53,-1.24 -0.74,-1.75zM842.16187,663.23227h9.79l-4.94,-13.52zM881.98187,676.04227h-10.01c-1.45,0 -2.48,-0.33 -3.09,-0.98c-0.62,-0.65 -0.93,-1.68 -0.93,-3.09v-24.63c0,-1.45 0.32,-2.49 0.95,-3.12c0.63,-0.63 1.66,-0.95 3.07,-0.95h10.62c1.56,0 2.91,0.1 4.06,0.29c1.15,0.19 2.18,0.57 3.09,1.12c0.77,0.46 1.46,1.05 2.06,1.76c0.59,0.71 1.05,1.49 1.36,2.34c0.31,0.86 0.47,1.77 0.47,2.72c0,3.27 -1.64,5.67 -4.92,7.19c4.31,1.37 6.46,4.04 6.46,8c0,1.83 -0.47,3.48 -1.41,4.95c-0.94,1.47 -2.21,2.56 -3.8,3.26c-0.99,0.41 -2.14,0.71 -3.44,0.88c-1.29,0.17 -2.81,0.26 -4.54,0.26zM881.49187,661.49227h-6.9v9.56h7.13c4.48,0 6.72,-1.62 6.72,-4.85c0,-1.65 -0.58,-2.85 -1.74,-3.6c-1.16,-0.74 -2.9,-1.11 -5.21,-1.11zM874.59187,648.26227v8.47h6.08c1.65,0 2.93,-0.16 3.83,-0.47c0.9,-0.31 1.59,-0.91 2.07,-1.79c0.37,-0.63 0.55,-1.33 0.55,-2.1c0,-1.65 -0.59,-2.75 -1.76,-3.3c-1.18,-0.54 -2.98,-0.81 -5.39,-0.81zM901.91187,672.55227v-25.81c0,-1.34 0.31,-2.35 0.92,-3.02c0.61,-0.67 1.4,-1.01 2.37,-1.01c1,0 1.81,0.33 2.42,1c0.62,0.66 0.93,1.67 0.93,3.03v25.81c0,1.35 -0.31,2.37 -0.93,3.04c-0.61,0.67 -1.42,1 -2.42,1c-0.95,0 -1.74,-0.34 -2.36,-1.01c-0.62,-0.68 -0.93,-1.69 -0.93,-3.03zM923.21187,646.74227v23.84h13.45c1.07,0 1.9,0.26 2.47,0.79c0.57,0.52 0.86,1.17 0.86,1.96c0,0.81 -0.28,1.46 -0.85,1.96c-0.57,0.5 -1.39,0.75 -2.48,0.75h-16.02c-1.45,0 -2.49,-0.32 -3.12,-0.96c-0.63,-0.65 -0.95,-1.68 -0.95,-3.11v-25.23c0,-1.34 0.3,-2.35 0.9,-3.02c0.61,-0.67 1.4,-1.01 2.38,-1.01c1,0 1.81,0.33 2.43,1c0.62,0.66 0.93,1.67 0.93,3.03zM945.35187,672.55227v-25.81c0,-1.34 0.3,-2.35 0.91,-3.02c0.61,-0.67 1.4,-1.01 2.37,-1.01c1,0 1.81,0.33 2.43,1c0.62,0.66 0.93,1.67 0.93,3.03v25.81c0,1.35 -0.31,2.37 -0.93,3.04c-0.62,0.67 -1.43,1 -2.43,1c-0.95,0 -1.74,-0.34 -2.35,-1.01c-0.62,-0.68 -0.93,-1.69 -0.93,-3.03zM981.41187,648.75227h-7.24v23.8c0,1.37 -0.3,2.39 -0.91,3.05c-0.61,0.66 -1.4,0.99 -2.37,0.99c-0.99,0 -1.79,-0.33 -2.41,-1c-0.61,-0.67 -0.92,-1.69 -0.92,-3.04v-23.8h-7.24c-1.13,0 -1.98,-0.25 -2.53,-0.75c-0.55,-0.5 -0.83,-1.16 -0.83,-1.98c0,-0.85 0.29,-1.52 0.86,-2.01c0.58,-0.49 1.41,-0.74 2.5,-0.74h21.09c1.15,0 2,0.25 2.56,0.76c0.56,0.51 0.84,1.17 0.84,1.99c0,0.82 -0.28,1.48 -0.85,1.98c-0.57,0.5 -1.42,0.75 -2.55,0.75zM996.78187,672.55227v-10.39l-8,-12.41c-0.7,-1.11 -1.19,-1.98 -1.48,-2.61c-0.29,-0.63 -0.44,-1.17 -0.44,-1.63c0,-0.76 0.29,-1.42 0.88,-1.97c0.59,-0.55 1.32,-0.83 2.18,-0.83c0.91,0 1.6,0.26 2.07,0.78c0.47,0.51 1.17,1.54 2.11,3.07l6.13,9.94l6.19,-9.94c0.37,-0.61 0.68,-1.13 0.93,-1.54c0.25,-0.42 0.53,-0.81 0.84,-1.18c0.31,-0.36 0.65,-0.64 1.02,-0.83c0.37,-0.2 0.83,-0.3 1.36,-0.3c0.83,0 1.53,0.27 2.09,0.82c0.56,0.55 0.84,1.18 0.84,1.89c0,0.58 -0.14,1.16 -0.42,1.74c-0.29,0.58 -0.77,1.39 -1.46,2.42l-8.2,12.58v10.39c0,1.35 -0.31,2.37 -0.94,3.04c-0.63,0.67 -1.42,1 -2.39,1c-0.98,0 -1.78,-0.33 -2.39,-0.99c-0.61,-0.66 -0.92,-1.68 -0.92,-3.05zM530.75187,687.67227h8.65c2.25,0 4.17,0.21 5.78,0.63c1.61,0.41 3.08,1.19 4.39,2.34c3.41,2.92 5.11,7.36 5.11,13.32c0,1.97 -0.17,3.76 -0.51,5.39c-0.35,1.62 -0.88,3.08 -1.59,4.39c-0.71,1.3 -1.63,2.47 -2.75,3.5c-0.88,0.79 -1.84,1.42 -2.88,1.9c-1.04,0.47 -2.16,0.81 -3.36,1c-1.2,0.19 -2.55,0.29 -4.06,0.29h-8.65c-1.21,0 -2.11,-0.18 -2.72,-0.54c-0.61,-0.37 -1.01,-0.88 -1.2,-1.55c-0.19,-0.66 -0.28,-1.52 -0.28,-2.58v-24.02c0,-1.43 0.32,-2.47 0.96,-3.11c0.64,-0.64 1.68,-0.96 3.11,-0.96zM533.32187,692.92227v22.24h5.03c1.1,0 1.96,-0.03 2.59,-0.09c0.63,-0.06 1.27,-0.21 1.94,-0.45c0.67,-0.24 1.26,-0.57 1.75,-1c2.22,-1.88 3.33,-5.11 3.33,-9.7c0,-3.23 -0.49,-5.66 -1.47,-7.27c-0.97,-1.61 -2.18,-2.63 -3.61,-3.07c-1.43,-0.44 -3.15,-0.66 -5.18,-0.66zM561.52187,716.95227v-25.82c0,-1.34 0.3,-2.34 0.91,-3.01c0.61,-0.67 1.4,-1.01 2.37,-1.01c1,0 1.81,0.33 2.43,1c0.61,0.66 0.92,1.67 0.92,3.02v25.82c0,1.35 -0.31,2.37 -0.92,3.04c-0.62,0.67 -1.43,1 -2.43,1c-0.95,0 -1.74,-0.34 -2.36,-1.02c-0.61,-0.67 -0.92,-1.68 -0.92,-3.02zM601.20187,710.60227c0,1.98 -0.51,3.76 -1.53,5.34c-1.02,1.58 -2.51,2.82 -4.48,3.71c-1.97,0.89 -4.3,1.34 -7,1.34c-3.23,0 -5.89,-0.61 -8,-1.83c-1.49,-0.88 -2.7,-2.05 -3.63,-3.52c-0.93,-1.47 -1.39,-2.89 -1.39,-4.28c0,-0.81 0.28,-1.5 0.83,-2.07c0.56,-0.57 1.27,-0.86 2.14,-0.86c0.7,0 1.29,0.22 1.77,0.67c0.49,0.45 0.9,1.11 1.25,1.99c0.41,1.05 0.86,1.92 1.35,2.62c0.48,0.7 1.16,1.28 2.04,1.73c0.88,0.45 2.04,0.68 3.47,0.68c1.97,0 3.56,-0.46 4.79,-1.38c1.23,-0.91 1.84,-2.06 1.84,-3.43c0,-1.09 -0.33,-1.97 -0.99,-2.64c-0.67,-0.68 -1.52,-1.2 -2.57,-1.56c-1.05,-0.35 -2.46,-0.73 -4.21,-1.14c-2.35,-0.55 -4.32,-1.19 -5.91,-1.93c-1.59,-0.74 -2.85,-1.75 -3.78,-3.02c-0.93,-1.27 -1.4,-2.86 -1.4,-4.75c0,-1.8 0.49,-3.4 1.48,-4.8c0.98,-1.4 2.4,-2.48 4.27,-3.23c1.86,-0.75 4.05,-1.13 6.57,-1.13c2.01,0 3.74,0.25 5.21,0.75c1.47,0.5 2.69,1.16 3.66,1.99c0.97,0.83 1.67,1.69 2.12,2.6c0.45,0.91 0.67,1.8 0.67,2.66c0,0.79 -0.28,1.51 -0.84,2.14c-0.55,0.63 -1.25,0.95 -2.09,0.95c-0.76,0 -1.34,-0.19 -1.73,-0.57c-0.39,-0.38 -0.82,-1 -1.28,-1.87c-0.6,-1.23 -1.32,-2.2 -2.15,-2.89c-0.83,-0.69 -2.17,-1.04 -4.02,-1.04c-1.71,0 -3.1,0.38 -4.15,1.13c-1.05,0.75 -1.57,1.65 -1.57,2.71c0,0.65 0.18,1.22 0.53,1.7c0.36,0.47 0.85,0.88 1.48,1.23c0.63,0.34 1.26,0.61 1.9,0.8c0.64,0.19 1.7,0.48 3.17,0.85c1.85,0.43 3.52,0.91 5.02,1.43c1.5,0.52 2.77,1.15 3.82,1.9c1.05,0.75 1.87,1.69 2.46,2.83c0.59,1.14 0.88,2.54 0.88,4.19zM635.48187,710.09227c0,1.04 -0.26,2.17 -0.77,3.38c-0.51,1.21 -1.32,2.41 -2.43,3.58c-1.1,1.17 -2.51,2.12 -4.22,2.85c-1.71,0.73 -3.71,1.09 -5.99,1.09c-1.73,0 -3.3,-0.16 -4.72,-0.49c-1.41,-0.33 -2.7,-0.84 -3.85,-1.53c-1.15,-0.69 -2.22,-1.61 -3.19,-2.74c-0.86,-1.03 -1.6,-2.18 -2.21,-3.45c-0.61,-1.27 -1.06,-2.63 -1.37,-4.08c-0.31,-1.45 -0.46,-2.98 -0.46,-4.6c0,-2.64 0.38,-5 1.15,-7.09c0.77,-2.09 1.87,-3.87 3.3,-5.35c1.43,-1.48 3.1,-2.61 5.03,-3.39c1.92,-0.77 3.97,-1.16 6.14,-1.16c2.65,0 5.02,0.53 7.09,1.59c2.07,1.05 3.65,2.36 4.76,3.92c1.1,1.56 1.65,3.03 1.65,4.41c0,0.76 -0.27,1.43 -0.81,2.02c-0.53,0.58 -1.18,0.87 -1.94,0.87c-0.85,0 -1.48,-0.2 -1.91,-0.61c-0.43,-0.4 -0.9,-1.09 -1.42,-2.07c-0.87,-1.63 -1.88,-2.84 -3.05,-3.65c-1.17,-0.8 -2.61,-1.2 -4.32,-1.2c-2.73,0 -4.9,1.03 -6.52,3.1c-1.61,2.07 -2.42,5.02 -2.42,8.83c0,2.55 0.36,4.67 1.07,6.36c0.71,1.69 1.73,2.95 3.04,3.79c1.31,0.83 2.85,1.25 4.6,1.25c1.91,0 3.52,-0.47 4.84,-1.42c1.32,-0.95 2.31,-2.34 2.98,-4.17c0.29,-0.87 0.64,-1.57 1.05,-2.11c0.42,-0.55 1.09,-0.82 2.02,-0.82c0.79,0 1.46,0.28 2.03,0.83c0.57,0.55 0.85,1.24 0.85,2.06zM648.68187,691.13227v23.85h13.46c1.07,0 1.89,0.26 2.46,0.78c0.58,0.52 0.87,1.18 0.87,1.97c0,0.81 -0.28,1.46 -0.85,1.95c-0.57,0.5 -1.39,0.75 -2.48,0.75h-16.03c-1.45,0 -2.49,-0.32 -3.12,-0.96c-0.63,-0.64 -0.95,-1.67 -0.95,-3.1v-25.24c0,-1.34 0.3,-2.34 0.91,-3.01c0.6,-0.67 1.39,-1.01 2.38,-1.01c1,0 1.81,0.33 2.42,1c0.62,0.66 0.93,1.67 0.93,3.02zM682.69187,687.11227c3.4,0 6.32,0.69 8.75,2.07c2.43,1.38 4.28,3.34 5.53,5.88c1.25,2.54 1.88,5.52 1.88,8.95c0,2.53 -0.34,4.83 -1.03,6.9c-0.69,2.07 -1.71,3.87 -3.08,5.39c-1.37,1.52 -3.06,2.68 -5.05,3.48c-2,0.81 -4.29,1.21 -6.87,1.21c-2.56,0 -4.85,-0.41 -6.88,-1.24c-2.03,-0.83 -3.72,-1.99 -5.07,-3.5c-1.36,-1.5 -2.38,-3.31 -3.07,-5.43c-0.69,-2.11 -1.04,-4.4 -1.04,-6.86c0,-2.52 0.36,-4.83 1.08,-6.93c0.72,-2.1 1.77,-3.89 3.14,-5.36c1.37,-1.47 3.04,-2.6 5.01,-3.39c1.97,-0.78 4.2,-1.17 6.7,-1.17zM692.12187,703.96227c0,-2.4 -0.39,-4.48 -1.16,-6.23c-0.77,-1.76 -1.88,-3.09 -3.32,-3.99c-1.44,-0.9 -3.09,-1.35 -4.95,-1.35c-1.33,0 -2.55,0.25 -3.68,0.74c-1.12,0.5 -2.09,1.23 -2.9,2.18c-0.81,0.95 -1.45,2.17 -1.92,3.66c-0.47,1.48 -0.71,3.14 -0.71,4.99c0,1.87 0.24,3.55 0.71,5.05c0.47,1.51 1.13,2.76 1.99,3.75c0.85,0.99 1.84,1.73 2.95,2.22c1.11,0.49 2.32,0.74 3.65,0.74c1.7,0 3.26,-0.43 4.68,-1.28c1.43,-0.85 2.56,-2.16 3.4,-3.93c0.84,-1.77 1.26,-3.96 1.26,-6.55zM730.15187,710.60227c0,1.98 -0.51,3.76 -1.53,5.34c-1.02,1.58 -2.51,2.82 -4.48,3.71c-1.97,0.89 -4.3,1.34 -6.99,1.34c-3.23,0 -5.9,-0.61 -8,-1.83c-1.49,-0.88 -2.71,-2.05 -3.64,-3.52c-0.93,-1.47 -1.39,-2.89 -1.39,-4.28c0,-0.81 0.28,-1.5 0.84,-2.07c0.55,-0.57 1.26,-0.86 2.13,-0.86c0.7,0 1.29,0.22 1.78,0.67c0.48,0.45 0.89,1.11 1.24,1.99c0.41,1.05 0.86,1.92 1.35,2.62c0.49,0.7 1.17,1.28 2.04,1.73c0.88,0.45 2.04,0.68 3.47,0.68c1.97,0 3.56,-0.46 4.79,-1.38c1.23,-0.91 1.85,-2.06 1.85,-3.43c0,-1.09 -0.33,-1.97 -1,-2.64c-0.66,-0.68 -1.52,-1.2 -2.57,-1.56c-1.05,-0.35 -2.46,-0.73 -4.21,-1.14c-2.35,-0.55 -4.32,-1.19 -5.91,-1.93c-1.59,-0.74 -2.85,-1.75 -3.78,-3.02c-0.93,-1.27 -1.4,-2.86 -1.4,-4.75c0,-1.8 0.49,-3.4 1.48,-4.8c0.98,-1.4 2.4,-2.48 4.27,-3.23c1.86,-0.75 4.05,-1.13 6.57,-1.13c2.01,0 3.75,0.25 5.22,0.75c1.47,0.5 2.68,1.16 3.65,1.99c0.97,0.83 1.67,1.69 2.12,2.6c0.45,0.91 0.67,1.8 0.67,2.66c0,0.79 -0.28,1.51 -0.84,2.14c-0.55,0.63 -1.25,0.95 -2.08,0.95c-0.76,0 -1.34,-0.19 -1.74,-0.57c-0.39,-0.38 -0.82,-1 -1.28,-1.87c-0.6,-1.23 -1.32,-2.2 -2.15,-2.89c-0.83,-0.69 -2.17,-1.04 -4.02,-1.04c-1.71,0 -3.1,0.38 -4.15,1.13c-1.05,0.75 -1.57,1.65 -1.57,2.71c0,0.65 0.18,1.22 0.54,1.7c0.35,0.47 0.84,0.88 1.47,1.23c0.63,0.34 1.26,0.61 1.9,0.8c0.64,0.19 1.7,0.48 3.17,0.85c1.85,0.43 3.52,0.91 5.02,1.43c1.5,0.52 2.77,1.15 3.82,1.9c1.05,0.75 1.87,1.69 2.46,2.83c0.59,1.14 0.88,2.54 0.88,4.19zM736.56187,706.89227v-15.76c0,-1.34 0.3,-2.34 0.91,-3.01c0.6,-0.67 1.39,-1.01 2.38,-1.01c1.03,0 1.84,0.34 2.44,1.01c0.61,0.67 0.91,1.67 0.91,3.01v16.12c0,1.83 0.2,3.36 0.61,4.59c0.41,1.23 1.14,2.18 2.18,2.86c1.05,0.68 2.51,1.02 4.38,1.02c2.59,0 4.43,-0.69 5.5,-2.07c1.07,-1.38 1.61,-3.47 1.61,-6.27v-16.25c0,-1.35 0.3,-2.36 0.89,-3.02c0.6,-0.67 1.4,-1 2.4,-1c0.99,0 1.8,0.33 2.42,1c0.62,0.66 0.93,1.67 0.93,3.02v15.76c0,2.56 -0.25,4.7 -0.75,6.41c-0.5,1.71 -1.44,3.22 -2.83,4.52c-1.19,1.1 -2.58,1.9 -4.16,2.41c-1.57,0.51 -3.42,0.76 -5.54,0.76c-2.51,0 -4.68,-0.27 -6.5,-0.81c-1.82,-0.55 -3.3,-1.39 -4.45,-2.53c-1.15,-1.14 -1.99,-2.6 -2.52,-4.38c-0.54,-1.78 -0.81,-3.91 -0.81,-6.38zM780.94187,706.42227h-2.32v10.53c0,1.38 -0.31,2.4 -0.92,3.06c-0.61,0.65 -1.41,0.98 -2.39,0.98c-1.06,0 -1.88,-0.34 -2.46,-1.03c-0.58,-0.68 -0.87,-1.68 -0.87,-3.01v-25.21c0,-1.43 0.32,-2.47 0.96,-3.11c0.64,-0.64 1.68,-0.96 3.11,-0.96h10.79c1.49,0 2.77,0.06 3.82,0.19c1.06,0.13 2.01,0.38 2.86,0.77c1.03,0.43 1.94,1.05 2.73,1.86c0.79,0.8 1.39,1.73 1.8,2.8c0.41,1.07 0.61,2.2 0.61,3.39c0,2.44 -0.69,4.39 -2.06,5.85c-1.38,1.46 -3.47,2.5 -6.27,3.11c1.17,0.63 2.3,1.55 3.37,2.77c1.07,1.22 2.03,2.52 2.87,3.9c0.85,1.38 1.5,2.62 1.97,3.73c0.47,1.11 0.7,1.88 0.7,2.29c0,0.43 -0.14,0.86 -0.41,1.29c-0.27,0.42 -0.65,0.75 -1.13,1c-0.47,0.25 -1.02,0.37 -1.65,0.37c-0.75,0 -1.37,-0.17 -1.88,-0.52c-0.51,-0.35 -0.94,-0.8 -1.31,-1.33c-0.36,-0.54 -0.85,-1.33 -1.48,-2.37l-2.66,-4.43c-0.95,-1.62 -1.81,-2.86 -2.56,-3.71c-0.75,-0.85 -1.52,-1.43 -2.29,-1.74c-0.77,-0.31 -1.75,-0.47 -2.93,-0.47zM784.74187,692.65227h-6.12v9.01h5.94c1.59,0 2.93,-0.14 4.02,-0.41c1.09,-0.28 1.93,-0.75 2.5,-1.41c0.57,-0.67 0.86,-1.58 0.86,-2.74c0,-0.91 -0.23,-1.71 -0.7,-2.4c-0.46,-0.69 -1.1,-1.21 -1.92,-1.55c-0.77,-0.33 -2.3,-0.5 -4.58,-0.5zM827.26187,692.79227h-14.95v8.04h13.77c1.01,0 1.77,0.23 2.27,0.68c0.5,0.46 0.75,1.06 0.75,1.8c0,0.75 -0.25,1.36 -0.74,1.83c-0.49,0.47 -1.25,0.7 -2.28,0.7h-13.77v9.32h15.47c1.04,0 1.83,0.24 2.36,0.72c0.53,0.49 0.79,1.13 0.79,1.94c0,0.77 -0.26,1.4 -0.79,1.89c-0.53,0.48 -1.32,0.72 -2.36,0.72h-18.04c-1.45,0 -2.49,-0.32 -3.12,-0.96c-0.63,-0.64 -0.95,-1.67 -0.95,-3.1v-24.63c0,-0.95 0.14,-1.73 0.43,-2.34c0.28,-0.6 0.72,-1.04 1.33,-1.32c0.6,-0.27 1.37,-0.41 2.31,-0.41h17.52c1.06,0 1.85,0.23 2.36,0.7c0.51,0.47 0.77,1.09 0.77,1.85c0,0.77 -0.26,1.39 -0.77,1.86c-0.51,0.47 -1.3,0.71 -2.36,0.71z" stroke-linecap="round"/>
</g>
</g>
</g>
<g transform="matrix(1 0 0 1 -2800 0)" id="d520e06f-a9f5-4865-b5eb-956b859f4cad">

</g>
<g transform="matrix(1 0 0 1 -2800 0)" id="3c0649b2-5e40-4f32-bc76-60f02790887b">

</g>

  </svg>